<svg width="400" height="400" viewBox="0 0 400 400" fill="none" xmlns="http://www.w3.org/2000/svg">
<g clip-path="url(#clip0_120_364)">
<rect width="400" height="400" rx="50" fill="black"/>
<circle cx="200" cy="200" r="200" fill="black"/>
<path d="M79.5 259.5C65 256.5 43.5 243 41 232C44.7691 217.627 48.2175 209.867 56.5 196.5L59 206.5C103 136.5 68.1846 124.584 94.5 101C123.258 75.2271 183 6 183 6C180 59.5 123 67 116.5 107C168.117 59.3538 159.137 82.6501 206.926 7.68629C203.297 82.2668 156.278 66.9263 126.5 124L146.5 119.5L141 142L170.5 136.5C162.924 192.55 76.968 226.933 79.5 259.5Z" fill="#FF002E"/>
<path d="M246.5 134.5C295.5 143 193 232 170.5 222C164 214.5 181.5 208.5 193 187C215.5 140 173.5 169 182 157C198 133 231.667 132 246.5 134.5Z" fill="#F3B71F"/>
<path d="M226 108.5C196 100.9 169.833 104 160.5 106.5C205.5 88.4998 241 97.9999 259.5 115C274.3 128.6 270.333 132 266.5 132C255.5 130.5 248 114.073 226 108.5Z" fill="#F3B71F"/>
<path d="M226.5 26C229.592 27.059 232.563 28.2627 235.413 29.6007C583.438 174.635 180.533 541.786 71 280.5C95.5 321 177 280.5 146.5 220C288.863 280.735 333.489 75.6443 235.413 29.6007C232.495 28.3847 229.524 27.1843 226.5 26Z" fill="#FF002E"/>
<path d="M101.5 141.5C98.6662 144.167 93.3995 152.7 94.9995 165.5C104.2 158.7 103.166 146.667 101.5 141.5Z" fill="black" stroke="black"/>
</g>
<defs>
<clipPath id="clip0_120_364">
<rect width="400" height="400" rx="50" fill="white"/>
</clipPath>
</defs>
</svg>
